# Blender 4.1.1
# www.blender.org
mtllib A1_5x6x5_centered.mtl
o My_World_2024-07-12@08-20-03__219_68_354_to_224_72_358
v -1.728354 -2.733767 -1.371537
v -1.728354 -2.733767 -0.371537
v -1.728354 -1.733767 -0.371537
v -1.728354 -1.733767 -1.371537
v -0.728354 -2.733767 -0.371537
v -0.728354 -2.733767 -1.371537
v -0.728354 -1.733767 -1.371537
v -0.728354 -1.733767 -0.371537
v -1.728354 -0.733767 -0.371537
v -1.728354 -0.733767 -1.371537
v -0.728354 -0.733767 -1.371537
v -0.728354 -0.733767 -0.371537
v -1.728354 0.266233 -0.371537
v -1.728354 0.266233 -1.371537
v -0.728354 0.266233 -1.371537
v -0.728354 0.266233 -0.371537
v -1.728354 -2.733767 0.628463
v -1.728354 -1.733767 0.628463
v -0.728354 -2.733767 0.628463
v -0.728354 -1.733767 0.628463
v -1.728354 -2.733767 1.628464
v -1.728354 -1.733767 1.628463
v -0.728354 -2.733767 1.628464
v -0.728354 -1.733767 1.628463
v 0.271646 -0.733767 -0.371537
v 0.271646 -0.733767 -1.371537
v 0.271646 0.266233 -1.371537
v 0.271646 0.266233 -0.371537
v 1.271646 -0.733767 -0.371537
v 1.271646 -0.733767 -1.371537
v 1.271646 0.266233 -1.371537
v 1.271646 0.266233 -0.371537
v 2.271646 -0.733767 -0.371537
v 2.271646 -0.733767 -1.371537
v 2.271646 0.266233 -1.371537
v 2.271646 0.266233 -0.371537
v 1.271646 1.266233 -0.371537
v 1.271646 1.266233 -1.371537
v 2.271646 1.266233 -1.371537
v 2.271646 1.266233 -0.371537
v 1.271646 2.266233 -0.371537
v 1.271646 2.266233 -1.371537
v 2.271646 2.266233 -1.371537
v 2.271646 2.266233 -0.371537
vn -1.0000 -0.0000 -0.0000
vn -0.0000 -1.0000 -0.0000
vn -0.0000 -0.0000 -1.0000
vn 1.0000 -0.0000 -0.0000
vn -0.0000 -0.0000 1.0000
vn -0.0000 1.0000 -0.0000
vt 1.000000 0.000000
vt 1.000000 1.000000
vt 0.000000 1.000000
vt 0.000000 0.000000
s 0
usemtl iron_block
f 2/1/1 3/2/1 4/3/1 1/4/1
f 2/3/2 1/4/2 6/1/2 5/2/2
f 1/1/3 4/2/3 7/3/3 6/4/3
f 5/4/4 6/1/4 7/2/4 8/3/4
f 3/1/1 9/2/1 10/3/1 4/4/1
f 4/1/3 10/2/3 11/3/3 7/4/3
f 8/4/4 7/1/4 11/2/4 12/3/4
f 3/4/5 8/1/5 12/2/5 9/3/5
f 9/1/1 13/2/1 14/3/1 10/4/1
f 10/1/3 14/2/3 15/3/3 11/4/3
f 13/4/6 16/1/6 15/2/6 14/3/6
f 9/4/5 12/1/5 16/2/5 13/3/5
f 17/1/1 18/2/1 3/3/1 2/4/1
f 17/3/2 2/4/2 5/1/2 19/2/2
f 19/4/4 5/1/4 8/2/4 20/3/4
f 18/4/6 20/1/6 8/2/6 3/3/6
f 21/1/1 22/2/1 18/3/1 17/4/1
f 21/3/2 17/4/2 19/1/2 23/2/2
f 23/4/4 19/1/4 20/2/4 24/3/4
f 22/4/6 24/1/6 20/2/6 18/3/6
f 21/4/5 23/1/5 24/2/5 22/3/5
f 12/3/2 11/4/2 26/1/2 25/2/2
f 11/1/3 15/2/3 27/3/3 26/4/3
f 16/4/6 28/1/6 27/2/6 15/3/6
f 12/4/5 25/1/5 28/2/5 16/3/5
f 25/3/2 26/4/2 30/1/2 29/2/2
f 26/1/3 27/2/3 31/3/3 30/4/3
f 28/4/6 32/1/6 31/2/6 27/3/6
f 25/4/5 29/1/5 32/2/5 28/3/5
f 29/3/2 30/4/2 34/1/2 33/2/2
f 30/1/3 31/2/3 35/3/3 34/4/3
f 33/4/4 34/1/4 35/2/4 36/3/4
f 29/4/5 33/1/5 36/2/5 32/3/5
f 32/1/1 37/2/1 38/3/1 31/4/1
f 31/1/3 38/2/3 39/3/3 35/4/3
f 36/4/4 35/1/4 39/2/4 40/3/4
f 32/4/5 36/1/5 40/2/5 37/3/5
f 37/1/1 41/2/1 42/3/1 38/4/1
f 38/1/3 42/2/3 43/3/3 39/4/3
f 40/4/4 39/1/4 43/2/4 44/3/4
f 41/4/6 44/1/6 43/2/6 42/3/6
f 37/4/5 40/1/5 44/2/5 41/3/5
