# Blender 4.1.1
# www.blender.org
mtllib B1_6x6x6_centered.mtl
o My_World_2024-07-12@08-20-03__219_67_343_to_224_72_348.001
v -1.454545 -2.272727 -0.727273
v -1.454545 -2.272727 0.272727
v -1.454545 -1.272727 0.272727
v -1.454545 -1.272727 -0.727273
v -0.454545 -2.272727 0.272727
v -0.454545 -2.272727 -0.727273
v -0.454545 -1.272727 -0.727273
v -0.454545 -1.272727 0.272727
v -1.454545 -0.272727 0.272727
v -1.454545 -0.272728 -0.727273
v -0.454545 -0.272728 -0.727273
v -0.454545 -0.272727 0.272727
v -1.454545 0.727273 0.272727
v -1.454545 0.727272 -0.727273
v -0.454545 0.727272 -0.727273
v -0.454545 0.727273 0.272727
v -1.454545 1.727273 0.272727
v -1.454545 1.727273 -0.727273
v -0.454545 1.727273 -0.727273
v -0.454545 1.727273 0.272727
v -1.454545 -2.272727 1.272727
v -1.454545 -1.272727 1.272727
v -0.454545 -2.272727 1.272727
v -0.454545 -1.272727 1.272727
v -1.454545 -2.272727 2.272727
v -1.454545 -1.272727 2.272727
v -0.454545 -2.272727 2.272727
v -0.454545 -1.272727 2.272727
v 0.545455 0.727273 0.272727
v 0.545455 0.727272 -0.727273
v 0.545455 1.727273 -0.727273
v 0.545455 1.727273 0.272727
v 1.545455 0.727273 0.272727
v 1.545455 0.727272 -0.727273
v 1.545455 1.727273 -0.727273
v 1.545455 1.727273 0.272727
v 1.545455 0.727272 -1.727273
v 1.545455 1.727272 -1.727273
v 2.545455 0.727272 -0.727273
v 2.545455 0.727272 -1.727273
v 2.545455 1.727272 -1.727273
v 2.545455 1.727273 -0.727273
v 2.545455 0.727273 0.272727
v 2.545455 1.727273 0.272727
vn -1.0000 -0.0000 -0.0000
vn -0.0000 -1.0000 -0.0000
vn -0.0000 -0.0000 -1.0000
vn 1.0000 -0.0000 -0.0000
vn -0.0000 -0.0000 1.0000
vn -0.0000 1.0000 -0.0000
vt 1.000000 0.000000
vt 1.000000 1.000000
vt 0.000000 1.000000
vt 0.000000 0.000000
s 0
usemtl iron_block.007
f 2/1/1 3/2/1 4/3/1 1/4/1
f 2/3/2 1/4/2 6/1/2 5/2/2
f 1/1/3 4/2/3 7/3/3 6/4/3
f 5/4/4 6/1/4 7/2/4 8/3/4
f 3/1/1 9/2/1 10/3/1 4/4/1
f 4/1/3 10/2/3 11/3/3 7/4/3
f 8/4/4 7/1/4 11/2/4 12/3/4
f 3/4/5 8/1/5 12/2/5 9/3/5
f 9/1/1 13/2/1 14/3/1 10/4/1
f 10/1/3 14/2/3 15/3/3 11/4/3
f 12/4/4 11/1/4 15/2/4 16/3/4
f 9/4/5 12/1/5 16/2/5 13/3/5
f 13/1/1 17/2/1 18/3/1 14/4/1
f 14/1/3 18/2/3 19/3/3 15/4/3
f 17/4/6 20/1/6 19/2/6 18/3/6
f 13/4/5 16/1/5 20/2/5 17/3/5
f 21/1/1 22/2/1 3/3/1 2/4/1
f 21/3/2 2/4/2 5/1/2 23/2/2
f 23/4/4 5/1/4 8/2/4 24/3/4
f 22/4/6 24/1/6 8/2/6 3/3/6
f 25/1/1 26/2/1 22/3/1 21/4/1
f 25/3/2 21/4/2 23/1/2 27/2/2
f 27/4/4 23/1/4 24/2/4 28/3/4
f 26/4/6 28/1/6 24/2/6 22/3/6
f 25/4/5 27/1/5 28/2/5 26/3/5
f 16/3/2 15/4/2 30/1/2 29/2/2
f 15/1/3 19/2/3 31/3/3 30/4/3
f 20/4/6 32/1/6 31/2/6 19/3/6
f 16/4/5 29/1/5 32/2/5 20/3/5
f 29/3/2 30/4/2 34/1/2 33/2/2
f 30/1/3 31/2/3 35/3/3 34/4/3
f 32/4/6 36/1/6 35/2/6 31/3/6
f 29/4/5 33/1/5 36/2/5 32/3/5
f 34/1/1 35/2/1 38/3/1 37/4/1
f 34/3/2 37/4/2 40/1/2 39/2/2
f 37/1/3 38/2/3 41/3/3 40/4/3
f 39/4/4 40/1/4 41/2/4 42/3/4
f 35/4/6 42/1/6 41/2/6 38/3/6
f 33/3/2 34/4/2 39/1/2 43/2/2
f 43/4/4 39/1/4 42/2/4 44/3/4
f 36/4/6 44/1/6 42/2/6 35/3/6
f 33/4/5 43/1/5 44/2/5 36/3/5
