# MagicaVoxel @ Ephtracy

# group
o 

# material
mtllib C1.mtl
usemtl palette

# normals
vn -1 0 0
vn 1 0 0
vn 0 0 1
vn 0 0 -1
vn 0 -1 0
vn 0 1 0

# texcoords
vt 0.111328 0.5
vt 0.119141 0.5

# verts
v -0.2 0.2 0.1
v -0.2 0.2 0
v -0.2 0.3 0.1
v -0.2 0.3 0
v -0.2 0.4 0.1
v -0.2 0.4 0
v -0.2 0.5 0.1
v -0.2 0.5 0
v 0.1 0 0.1
v 0.1 0 0
v 0.1 0 -0.1
v 0.1 0 -0.2
v 0.1 0.1 0.1
v 0.1 0.1 0
v 0.1 0.1 -0.1
v 0.1 0.1 -0.2
v 0.1 0.2 0.1
v 0.1 0.2 0
v -0.1 0.3 0.1
v -0.1 0.3 0
v -0.1 0.4 0.1
v -0.1 0.4 0
v -0.1 0.5 0.1
v -0.1 0.5 0
v 0.2 0 0.1
v 0.2 0 0
v 0.2 0 -0.1
v 0.2 0 -0.2
v 0.2 0.1 0.1
v 0.2 0.1 0
v 0.2 0.1 -0.1
v 0.2 0.1 -0.2
v 0.2 0.2 0.1
v 0.2 0.2 0
v 0.2 0.3 0.1
v 0.2 0.3 0
v -0.2 0.2 0.1
v -0.2 0.3 0.1
v -0.2 0.4 0.1
v -0.2 0.5 0.1
v -0.1 0.2 0.1
v -0.1 0.3 0.1
v -0.1 0.4 0.1
v -0.1 0.5 0.1
v 0 0.2 0.1
v 0 0.3 0.1
v 0.1 0 0.1
v 0.1 0.1 0.1
v 0.1 0.2 0.1
v 0.1 0.3 0.1
v 0.2 0 0.1
v 0.2 0.1 0.1
v 0.2 0.2 0.1
v 0.2 0.3 0.1
v -0.2 0.2 0
v -0.2 0.3 0
v -0.2 0.4 0
v -0.2 0.5 0
v -0.1 0.2 0
v -0.1 0.3 0
v -0.1 0.4 0
v -0.1 0.5 0
v 0 0.2 0
v 0 0.3 0
v 0.1 0.1 0
v 0.1 0.2 0
v 0.1 0.3 0
v 0.2 0.1 0
v 0.2 0.2 0
v 0.2 0.3 0
v 0.1 0 -0.2
v 0.1 0.1 -0.2
v 0.2 0 -0.2
v 0.2 0.1 -0.2
v 0.1 0 0.1
v 0.2 0 0.1
v 0.1 0 0
v 0.2 0 0
v 0.1 0 -0.1
v 0.2 0 -0.1
v 0.1 0 -0.2
v 0.2 0 -0.2
v -0.2 0.2 0.1
v -0.1 0.2 0.1
v 0 0.2 0.1
v 0.1 0.2 0.1
v -0.2 0.2 0
v -0.1 0.2 0
v 0 0.2 0
v 0.1 0.2 0
v 0.1 0.1 0
v 0.2 0.1 0
v 0.1 0.1 -0.1
v 0.2 0.1 -0.1
v 0.1 0.1 -0.2
v 0.2 0.1 -0.2
v -0.1 0.3 0.1
v 0 0.3 0.1
v 0.1 0.3 0.1
v 0.2 0.3 0.1
v -0.1 0.3 0
v 0 0.3 0
v 0.1 0.3 0
v 0.2 0.3 0
v -0.2 0.5 0.1
v -0.1 0.5 0.1
v -0.2 0.5 0
v -0.1 0.5 0

# faces
f 3/2/1 2/2/1 1/2/1
f 4/2/1 2/2/1 3/2/1
f 5/1/1 4/1/1 3/1/1
f 6/1/1 4/1/1 5/1/1
f 7/2/1 6/2/1 5/2/1
f 8/2/1 6/2/1 7/2/1
f 13/1/1 10/1/1 9/1/1
f 14/2/1 11/2/1 10/2/1
f 14/1/1 10/1/1 13/1/1
f 15/1/1 12/1/1 11/1/1
f 15/2/1 11/2/1 14/2/1
f 16/1/1 12/1/1 15/1/1
f 17/2/1 14/2/1 13/2/1
f 18/2/1 14/2/1 17/2/1
f 19/1/2 20/1/2 21/1/2
f 21/1/2 20/1/2 22/1/2
f 21/2/2 22/2/2 23/2/2
f 23/2/2 22/2/2 24/2/2
f 25/1/2 26/1/2 29/1/2
f 26/2/2 27/2/2 30/2/2
f 29/1/2 26/1/2 30/1/2
f 27/1/2 28/1/2 31/1/2
f 30/2/2 27/2/2 31/2/2
f 31/1/2 28/1/2 32/1/2
f 29/2/2 30/2/2 33/2/2
f 33/2/2 30/2/2 34/2/2
f 33/1/2 34/1/2 35/1/2
f 35/1/2 34/1/2 36/1/2
f 41/2/3 38/2/3 37/2/3
f 42/1/3 39/1/3 38/1/3
f 42/2/3 38/2/3 41/2/3
f 43/2/3 40/2/3 39/2/3
f 43/1/3 39/1/3 42/1/3
f 44/2/3 40/2/3 43/2/3
f 45/1/3 42/1/3 41/1/3
f 46/1/3 42/1/3 45/1/3
f 49/2/3 46/2/3 45/2/3
f 50/2/3 46/2/3 49/2/3
f 51/1/3 48/1/3 47/1/3
f 52/2/3 49/2/3 48/2/3
f 52/1/3 48/1/3 51/1/3
f 53/1/3 50/1/3 49/1/3
f 53/2/3 49/2/3 52/2/3
f 54/1/3 50/1/3 53/1/3
f 55/2/4 56/2/4 59/2/4
f 56/1/4 57/1/4 60/1/4
f 59/2/4 56/2/4 60/2/4
f 57/2/4 58/2/4 61/2/4
f 60/1/4 57/1/4 61/1/4
f 61/2/4 58/2/4 62/2/4
f 59/1/4 60/1/4 63/1/4
f 63/1/4 60/1/4 64/1/4
f 63/2/4 64/2/4 66/2/4
f 66/2/4 64/2/4 67/2/4
f 65/2/4 66/2/4 68/2/4
f 66/1/4 67/1/4 69/1/4
f 68/2/4 66/2/4 69/2/4
f 69/1/4 67/1/4 70/1/4
f 71/1/4 72/1/4 73/1/4
f 73/1/4 72/1/4 74/1/4
f 77/1/5 76/1/5 75/1/5
f 78/1/5 76/1/5 77/1/5
f 79/2/5 78/2/5 77/2/5
f 80/2/5 78/2/5 79/2/5
f 81/1/5 80/1/5 79/1/5
f 82/1/5 80/1/5 81/1/5
f 87/2/5 84/2/5 83/2/5
f 88/1/5 85/1/5 84/1/5
f 88/2/5 84/2/5 87/2/5
f 89/2/5 86/2/5 85/2/5
f 89/1/5 85/1/5 88/1/5
f 90/2/5 86/2/5 89/2/5
f 91/2/6 92/2/6 93/2/6
f 93/2/6 92/2/6 94/2/6
f 93/1/6 94/1/6 95/1/6
f 95/1/6 94/1/6 96/1/6
f 97/1/6 98/1/6 101/1/6
f 98/2/6 99/2/6 102/2/6
f 101/1/6 98/1/6 102/1/6
f 99/1/6 100/1/6 103/1/6
f 102/2/6 99/2/6 103/2/6
f 103/1/6 100/1/6 104/1/6
f 105/2/6 106/2/6 107/2/6
f 107/2/6 106/2/6 108/2/6
