# Blender 4.1.1
# www.blender.org
mtllib C1_5x6x5_centered.mtl
o My_World_2024-07-12@08-20-03__219_68_333_to_224_72_337
v -1.454545 -2.409091 -0.863636
v -1.454545 -2.409091 0.136364
v -1.454545 -1.409091 0.136364
v -1.454545 -1.409091 -0.863636
v -0.454545 -2.409091 0.136364
v -0.454545 -2.409091 -0.863636
v -0.454545 -1.409091 -0.863636
v -0.454545 -1.409091 0.136364
v -1.454545 -0.409091 0.136364
v -1.454545 -0.409091 -0.863636
v -0.454545 -0.409091 -0.863636
v -0.454545 -0.409091 0.136364
v -1.454545 0.590909 0.136364
v -1.454545 0.590909 -0.863636
v -0.454545 0.590909 -0.863636
v -0.454545 0.590909 0.136364
v -1.454545 1.590909 0.136364
v -1.454545 1.590909 -0.863636
v -0.454545 1.590909 -0.863636
v -0.454545 1.590909 0.136364
v -1.454545 -2.409091 1.136364
v -1.454545 -1.409091 1.136364
v -0.454545 -2.409091 1.136364
v -0.454545 -1.409091 1.136364
v -1.454545 -2.409091 2.136364
v -1.454545 -1.409091 2.136364
v -0.454545 -2.409091 2.136364
v -0.454545 -1.409091 2.136364
v 0.545455 0.590909 0.136364
v 0.545455 0.590909 -0.863636
v 0.545455 1.590909 -0.863636
v 0.545455 1.590909 0.136364
v 1.545455 0.590909 0.136364
v 1.545455 0.590909 -0.863636
v 1.545455 1.590909 -0.863636
v 1.545455 1.590909 0.136364
v 2.545455 0.590909 0.136364
v 2.545455 0.590909 -0.863636
v 2.545455 1.590909 -0.863636
v 2.545455 1.590909 0.136364
v 1.545455 2.590909 0.136363
v 1.545455 2.590909 -0.863637
v 2.545455 2.590909 -0.863637
v 2.545455 2.590909 0.136363
vn -1.0000 -0.0000 -0.0000
vn -0.0000 -1.0000 -0.0000
vn -0.0000 -0.0000 -1.0000
vn 1.0000 -0.0000 -0.0000
vn -0.0000 -0.0000 1.0000
vn -0.0000 1.0000 -0.0000
vt 1.000000 0.000000
vt 1.000000 1.000000
vt 0.000000 1.000000
vt 0.000000 0.000000
s 0
usemtl iron_block.005
f 2/1/1 3/2/1 4/3/1 1/4/1
f 2/3/2 1/4/2 6/1/2 5/2/2
f 1/1/3 4/2/3 7/3/3 6/4/3
f 5/4/4 6/1/4 7/2/4 8/3/4
f 3/1/1 9/2/1 10/3/1 4/4/1
f 4/1/3 10/2/3 11/3/3 7/4/3
f 8/4/4 7/1/4 11/2/4 12/3/4
f 3/4/5 8/1/5 12/2/5 9/3/5
f 9/1/1 13/2/1 14/3/1 10/4/1
f 10/1/3 14/2/3 15/3/3 11/4/3
f 12/4/4 11/1/4 15/2/4 16/3/4
f 9/4/5 12/1/5 16/2/5 13/3/5
f 13/1/1 17/2/1 18/3/1 14/4/1
f 14/1/3 18/2/3 19/3/3 15/4/3
f 17/4/6 20/1/6 19/2/6 18/3/6
f 13/4/5 16/1/5 20/2/5 17/3/5
f 21/1/1 22/2/1 3/3/1 2/4/1
f 21/3/2 2/4/2 5/1/2 23/2/2
f 23/4/4 5/1/4 8/2/4 24/3/4
f 22/4/6 24/1/6 8/2/6 3/3/6
f 25/1/1 26/2/1 22/3/1 21/4/1
f 25/3/2 21/4/2 23/1/2 27/2/2
f 27/4/4 23/1/4 24/2/4 28/3/4
f 26/4/6 28/1/6 24/2/6 22/3/6
f 25/4/5 27/1/5 28/2/5 26/3/5
f 16/3/2 15/4/2 30/1/2 29/2/2
f 15/1/3 19/2/3 31/3/3 30/4/3
f 20/4/6 32/1/6 31/2/6 19/3/6
f 16/4/5 29/1/5 32/2/5 20/3/5
f 29/3/2 30/4/2 34/1/2 33/2/2
f 30/1/3 31/2/3 35/3/3 34/4/3
f 32/4/6 36/1/6 35/2/6 31/3/6
f 29/4/5 33/1/5 36/2/5 32/3/5
f 33/3/2 34/4/2 38/1/2 37/2/2
f 34/1/3 35/2/3 39/3/3 38/4/3
f 37/4/4 38/1/4 39/2/4 40/3/4
f 33/4/5 37/1/5 40/2/5 36/3/5
f 36/1/1 41/2/1 42/3/1 35/4/1
f 35/1/3 42/2/3 43/3/3 39/4/3
f 40/4/4 39/1/4 43/2/4 44/3/4
f 41/4/6 44/1/6 43/2/6 42/3/6
f 36/4/5 40/1/5 44/2/5 41/3/5
