# Blender 4.1.1
# www.blender.org
mtllib D1_5x6x5_centered.mtl
o My_World_2024-07-12@08-20-03__232_68_353_to_237_72_357
v -1.727273 -1.772727 -0.500000
v -1.727273 -1.772727 0.500000
v -1.727273 -0.772727 0.500000
v -1.727273 -0.772727 -0.500000
v -0.727273 -1.772727 0.500000
v -0.727273 -1.772727 -0.500000
v -0.727273 -0.772727 -0.500000
v -0.727273 -0.772727 0.500000
v -1.727273 0.227273 0.500000
v -1.727273 0.227273 -0.500000
v -0.727273 0.227273 -0.500000
v -0.727273 0.227273 0.500000
v -1.727273 1.227273 0.500000
v -1.727273 1.227273 -0.500000
v -0.727273 1.227273 -0.500000
v -0.727273 1.227273 0.500000
v -1.727273 -1.772727 1.500000
v -1.727273 -0.772727 1.500000
v -0.727273 -1.772727 1.500000
v -0.727273 -0.772727 1.500000
v -1.727273 -1.772727 2.500000
v -1.727273 -0.772727 2.500000
v -0.727273 -1.772727 2.500000
v -0.727273 -0.772727 2.500000
v 0.272727 0.227273 0.500000
v 0.272727 0.227273 -0.500000
v 0.272727 1.227273 -0.500000
v 0.272727 1.227273 0.500000
v 1.272727 0.227273 0.500000
v 1.272727 0.227273 -0.500000
v 1.272727 1.227273 -0.500000
v 1.272727 1.227273 0.500000
v 1.272727 0.227272 -2.500000
v 1.272727 0.227273 -1.500000
v 1.272727 1.227273 -1.500000
v 1.272727 1.227272 -2.500000
v 2.272727 0.227273 -1.500000
v 2.272727 0.227272 -2.500000
v 2.272727 1.227272 -2.500000
v 2.272727 1.227273 -1.500000
v 2.272727 0.227273 -0.500000
v 2.272727 1.227273 -0.500000
v 2.272727 0.227273 0.500000
v 2.272727 1.227273 0.500000
vn -1.0000 -0.0000 -0.0000
vn -0.0000 -1.0000 -0.0000
vn -0.0000 -0.0000 -1.0000
vn 1.0000 -0.0000 -0.0000
vn -0.0000 -0.0000 1.0000
vn -0.0000 1.0000 -0.0000
vt 1.000000 0.000000
vt 1.000000 1.000000
vt 0.000000 1.000000
vt 0.000000 0.000000
s 0
usemtl iron_block.003
f 2/1/1 3/2/1 4/3/1 1/4/1
f 2/3/2 1/4/2 6/1/2 5/2/2
f 1/1/3 4/2/3 7/3/3 6/4/3
f 5/4/4 6/1/4 7/2/4 8/3/4
f 3/1/1 9/2/1 10/3/1 4/4/1
f 4/1/3 10/2/3 11/3/3 7/4/3
f 8/4/4 7/1/4 11/2/4 12/3/4
f 3/4/5 8/1/5 12/2/5 9/3/5
f 9/1/1 13/2/1 14/3/1 10/4/1
f 10/1/3 14/2/3 15/3/3 11/4/3
f 13/4/6 16/1/6 15/2/6 14/3/6
f 9/4/5 12/1/5 16/2/5 13/3/5
f 17/1/1 18/2/1 3/3/1 2/4/1
f 17/3/2 2/4/2 5/1/2 19/2/2
f 19/4/4 5/1/4 8/2/4 20/3/4
f 18/4/6 20/1/6 8/2/6 3/3/6
f 21/1/1 22/2/1 18/3/1 17/4/1
f 21/3/2 17/4/2 19/1/2 23/2/2
f 23/4/4 19/1/4 20/2/4 24/3/4
f 22/4/6 24/1/6 20/2/6 18/3/6
f 21/4/5 23/1/5 24/2/5 22/3/5
f 12/3/2 11/4/2 26/1/2 25/2/2
f 11/1/3 15/2/3 27/3/3 26/4/3
f 16/4/6 28/1/6 27/2/6 15/3/6
f 12/4/5 25/1/5 28/2/5 16/3/5
f 25/3/2 26/4/2 30/1/2 29/2/2
f 26/1/3 27/2/3 31/3/3 30/4/3
f 28/4/6 32/1/6 31/2/6 27/3/6
f 25/4/5 29/1/5 32/2/5 28/3/5
f 34/1/1 35/2/1 36/3/1 33/4/1
f 34/3/2 33/4/2 38/1/2 37/2/2
f 33/1/3 36/2/3 39/3/3 38/4/3
f 37/4/4 38/1/4 39/2/4 40/3/4
f 35/4/6 40/1/6 39/2/6 36/3/6
f 30/1/1 31/2/1 35/3/1 34/4/1
f 30/3/2 34/4/2 37/1/2 41/2/2
f 41/4/4 37/1/4 40/2/4 42/3/4
f 31/4/6 42/1/6 40/2/6 35/3/6
f 29/3/2 30/4/2 41/1/2 43/2/2
f 43/4/4 41/1/4 42/2/4 44/3/4
f 32/4/6 44/1/6 42/2/6 31/3/6
f 29/4/5 43/1/5 44/2/5 32/3/5
