# Blender 4.1.1
# www.blender.org
mtllib E2_5x5x6_centered.mtl
o My_World_2024-07-12@08-20-03__232_68_336_to_236_73_340
v -1.227273 -2.636364 -2.136363
v -1.227273 -2.636364 -1.136363
v -1.227273 -1.636364 -1.136364
v -1.227273 -1.636364 -2.136363
v -0.227273 -2.636364 -1.136363
v -0.227273 -2.636364 -2.136363
v -0.227273 -1.636364 -2.136363
v -0.227273 -1.636364 -1.136364
v -1.227273 -2.636364 -0.136363
v -1.227273 -1.636364 -0.136364
v -0.227273 -2.636364 -0.136363
v -0.227273 -1.636364 -0.136364
v -1.227273 -2.636364 0.863637
v -1.227273 -1.636364 0.863636
v -0.227273 -2.636364 0.863637
v -0.227273 -1.636364 0.863636
v -1.227273 -0.636364 0.863636
v -1.227273 -0.636364 -0.136364
v -0.227273 -0.636364 -0.136364
v -0.227273 -0.636364 0.863636
v -1.227273 0.363636 0.863636
v -1.227273 0.363636 -0.136364
v -0.227273 0.363636 -0.136364
v -0.227273 0.363636 0.863636
v -1.227273 1.363636 0.863636
v -1.227273 1.363636 -0.136364
v -0.227273 1.363636 -0.136364
v -0.227273 1.363636 0.863636
v 0.772727 0.363636 0.863636
v 0.772727 0.363636 -0.136364
v 0.772727 1.363636 -0.136364
v 0.772727 1.363636 0.863636
v 1.772727 0.363636 0.863636
v 1.772727 0.363636 -0.136364
v 1.772727 1.363636 -0.136364
v 1.772727 1.363636 0.863636
v 0.772727 2.363636 0.863636
v 0.772727 2.363636 -0.136364
v 1.772727 2.363636 -0.136364
v 1.772727 2.363636 0.863636
v 0.772727 3.363636 0.863636
v 0.772727 3.363636 -0.136364
v 1.772727 3.363636 -0.136364
v 1.772727 3.363636 0.863636
vn -1.0000 -0.0000 -0.0000
vn -0.0000 -1.0000 -0.0000
vn -0.0000 -0.0000 -1.0000
vn 1.0000 -0.0000 -0.0000
vn -0.0000 1.0000 -0.0000
vn -0.0000 -0.0000 1.0000
vt 1.000000 0.000000
vt 1.000000 1.000000
vt 0.000000 1.000000
vt 0.000000 0.000000
s 0
usemtl iron_block.002
f 2/1/1 3/2/1 4/3/1 1/4/1
f 2/3/2 1/4/2 6/1/2 5/2/2
f 1/1/3 4/2/3 7/3/3 6/4/3
f 5/4/4 6/1/4 7/2/4 8/3/4
f 3/4/5 8/1/5 7/2/5 4/3/5
f 9/1/1 10/2/1 3/3/1 2/4/1
f 9/3/2 2/4/2 5/1/2 11/2/2
f 11/4/4 5/1/4 8/2/4 12/3/4
f 10/4/5 12/1/5 8/2/5 3/3/5
f 13/1/1 14/2/1 10/3/1 9/4/1
f 13/3/2 9/4/2 11/1/2 15/2/2
f 15/4/4 11/1/4 12/2/4 16/3/4
f 13/4/6 15/1/6 16/2/6 14/3/6
f 14/1/1 17/2/1 18/3/1 10/4/1
f 10/1/3 18/2/3 19/3/3 12/4/3
f 16/4/4 12/1/4 19/2/4 20/3/4
f 14/4/6 16/1/6 20/2/6 17/3/6
f 17/1/1 21/2/1 22/3/1 18/4/1
f 18/1/3 22/2/3 23/3/3 19/4/3
f 20/4/4 19/1/4 23/2/4 24/3/4
f 17/4/6 20/1/6 24/2/6 21/3/6
f 21/1/1 25/2/1 26/3/1 22/4/1
f 22/1/3 26/2/3 27/3/3 23/4/3
f 25/4/5 28/1/5 27/2/5 26/3/5
f 21/4/6 24/1/6 28/2/6 25/3/6
f 24/3/2 23/4/2 30/1/2 29/2/2
f 23/1/3 27/2/3 31/3/3 30/4/3
f 28/4/5 32/1/5 31/2/5 27/3/5
f 24/4/6 29/1/6 32/2/6 28/3/6
f 29/3/2 30/4/2 34/1/2 33/2/2
f 30/1/3 31/2/3 35/3/3 34/4/3
f 33/4/4 34/1/4 35/2/4 36/3/4
f 29/4/6 33/1/6 36/2/6 32/3/6
f 32/1/1 37/2/1 38/3/1 31/4/1
f 31/1/3 38/2/3 39/3/3 35/4/3
f 36/4/4 35/1/4 39/2/4 40/3/4
f 32/4/6 36/1/6 40/2/6 37/3/6
f 37/1/1 41/2/1 42/3/1 38/4/1
f 38/1/3 42/2/3 43/3/3 39/4/3
f 40/4/4 39/1/4 43/2/4 44/3/4
f 41/4/5 44/1/5 43/2/5 42/3/5
f 37/4/6 40/1/6 44/2/6 41/3/6
